<svg xmlns="http://www.w3.org/2000/svg" xmlns:xlink="http://www.w3.org/1999/xlink" width="1038" zoomAndPan="magnify" viewBox="0 0 778.5 135.000003" height="180" preserveAspectRatio="xMidYMid meet" version="1.0"><defs><g/><clipPath id="04bb24c863"><path d="M 16.023438 19.445312 L 176 19.445312 L 176 114.800781 L 16.023438 114.800781 Z M 16.023438 19.445312 " clip-rule="nonzero"/></clipPath></defs><path fill="#262626" d="M 142.539062 96.519531 C 141.710938 98.101562 141.242188 99.898438 141.242188 101.804688 C 141.242188 108.101562 146.351562 113.214844 152.640625 113.214844 C 158.933594 113.214844 164.042969 108.101562 164.042969 101.804688 C 164.042969 99.898438 163.574219 98.101562 162.746094 96.519531 L 158.980469 96.519531 C 160.175781 97.953125 160.894531 99.796875 160.894531 101.804688 C 160.894531 106.363281 157.195312 110.0625 152.640625 110.0625 C 148.085938 110.0625 144.390625 106.363281 144.390625 101.804688 C 144.390625 99.796875 145.109375 97.953125 146.304688 96.519531 Z M 47.414062 90.398438 C 53.707031 90.398438 58.816406 95.511719 58.816406 101.804688 C 58.816406 108.101562 53.707031 113.214844 47.414062 113.214844 C 41.121094 113.214844 36.015625 108.101562 36.015625 101.804688 C 36.015625 95.511719 41.121094 90.398438 47.414062 90.398438 Z M 47.375 93.550781 C 42.820312 93.550781 39.121094 97.25 39.121094 101.804688 C 39.121094 106.363281 42.820312 110.0625 47.375 110.0625 C 51.929688 110.0625 55.625 106.363281 55.625 101.804688 C 55.625 97.25 51.929688 93.550781 47.375 93.550781 " fill-opacity="1" fill-rule="evenodd"/><path fill="#6ab9c8" d="M 172.726562 71.640625 L 32.792969 71.640625 C 28.902344 71.640625 25.105469 72.742188 21.839844 74.792969 C 22.191406 74.902344 22.527344 75.132812 22.828125 75.492188 C 23.515625 76.320312 24.03125 77.972656 24.03125 79.890625 C 24.03125 81.808594 23.515625 83.460938 22.828125 84.285156 C 22.394531 84.808594 21.875 85.0625 21.351562 85.0625 C 20.828125 85.0625 20.3125 84.808594 19.875 84.285156 C 19.820312 84.21875 19.765625 84.148438 19.714844 84.070312 C 19.730469 87.757812 19.835938 91.039062 19.835938 92.480469 C 19.835938 92.804688 19.640625 93.09375 19.34375 93.214844 C 18.335938 93.621094 17.636719 94.65625 17.617188 95.738281 C 17.605469 97.707031 17.605469 96.984375 17.617188 98.953125 C 17.644531 100.414062 18.914062 101.636719 20.332031 101.667969 C 21.496094 101.675781 26.589844 101.65625 30.351562 101.640625 C 30.964844 101.636719 31.476562 101.167969 31.527344 100.554688 C 31.535156 100.371094 31.546875 100.210938 31.558594 100.09375 C 32.414062 92.09375 39.191406 85.851562 47.414062 85.851562 C 55.636719 85.851562 62.414062 92.09375 63.269531 100.09375 C 63.28125 100.21875 63.292969 100.386719 63.300781 100.582031 C 63.355469 101.195312 63.867188 101.667969 64.484375 101.667969 C 75.0625 101.667969 125.90625 101.667969 134.960938 101.667969 C 135.460938 101.667969 135.90625 101.355469 136.074219 100.886719 L 137.175781 97.878906 C 137.820312 96.113281 139.496094 94.941406 141.375 94.941406 L 164.191406 94.941406 C 166.042969 94.941406 167.703125 96.082031 168.363281 97.8125 C 168.761719 98.84375 169.207031 100.011719 169.539062 100.875 C 169.714844 101.332031 170.15625 101.632812 170.644531 101.632812 C 171.289062 101.632812 172.0625 101.632812 172.761719 101.632812 C 173.394531 101.632812 173.914062 101.136719 173.945312 100.507812 C 174.117188 95.890625 174.375 83.496094 172.726562 71.640625 " fill-opacity="1" fill-rule="evenodd"/><path fill="#eed96b" d="M 21.351562 76.300781 C 21.414062 76.300781 21.464844 76.351562 21.519531 76.40625 C 21.617188 76.496094 21.703125 76.617188 21.785156 76.757812 C 22.199219 77.464844 22.449219 78.605469 22.449219 79.890625 C 22.449219 81.175781 22.199219 82.316406 21.785156 83.023438 C 21.703125 83.164062 21.617188 83.285156 21.519531 83.375 C 21.464844 83.425781 21.414062 83.480469 21.351562 83.480469 C 21.289062 83.480469 21.242188 83.425781 21.183594 83.375 C 21.089844 83.285156 21 83.164062 20.917969 83.023438 C 20.503906 82.316406 20.253906 81.175781 20.253906 79.890625 C 20.253906 78.605469 20.503906 77.464844 20.917969 76.757812 C 21 76.617188 21.089844 76.496094 21.183594 76.40625 C 21.242188 76.351562 21.289062 76.300781 21.351562 76.300781 " fill-opacity="1" fill-rule="evenodd"/><path fill="#ffffff" d="M 47.375 95.128906 C 51.058594 95.128906 54.046875 98.121094 54.046875 101.804688 C 54.046875 105.492188 51.058594 108.480469 47.375 108.480469 C 43.691406 108.480469 40.703125 105.492188 40.703125 101.804688 C 40.703125 98.121094 43.691406 95.128906 47.375 95.128906 Z M 148.566406 96.519531 L 156.714844 96.519531 C 158.296875 97.742188 159.3125 99.65625 159.3125 101.804688 C 159.3125 105.492188 156.324219 108.480469 152.640625 108.480469 C 148.960938 108.480469 145.96875 105.492188 145.96875 101.804688 C 145.96875 99.65625 146.988281 97.742188 148.566406 96.519531 Z M 172.496094 70.058594 C 171.683594 64.792969 170.472656 59.714844 168.691406 55.554688 C 166.261719 49.890625 162.789062 45.941406 157.640625 45.941406 C 132.320312 45.941406 42.070312 45.941406 42.070312 45.941406 C 41.035156 45.941406 40.160156 45.9375 39.445312 46.039062 C 38.902344 46.113281 38.46875 46.238281 38.167969 46.542969 C 38.046875 46.667969 37.949219 46.804688 37.878906 46.941406 C 38.617188 47.140625 39.46875 47.664062 39.402344 49.039062 C 39.367188 49.792969 38.984375 50.921875 37.859375 52.554688 C 33.417969 59 28.929688 66.113281 28.398438 66.859375 C 26.898438 68.960938 25.4375 69.097656 21.503906 69.0625 C 21.394531 69.085938 21.132812 69.15625 20.992188 69.386719 C 20.488281 70.207031 20.203125 71.945312 20.011719 74.109375 C 23.746094 71.480469 28.207031 70.058594 32.792969 70.058594 Z M 37.113281 48.398438 C 36.175781 48.917969 34.867188 50.242188 33.351562 52.003906 C 29.875 56.039062 25.441406 62.375 22.183594 67.488281 C 24.851562 67.519531 25.996094 67.503906 27.109375 65.941406 C 27.644531 65.195312 32.121094 58.09375 36.558594 51.65625 C 37.167969 50.773438 37.527344 50.082031 37.703125 49.535156 C 37.828125 49.160156 37.863281 48.890625 37.796875 48.691406 C 37.734375 48.515625 37.558594 48.472656 37.421875 48.4375 C 37.304688 48.410156 37.191406 48.402344 37.113281 48.398438 Z M 46.851562 49.085938 L 46.851562 67.488281 L 65.59375 67.480469 C 66.25 67.480469 66.78125 66.949219 66.78125 66.292969 C 66.78125 62.46875 66.78125 54.09375 66.78125 50.269531 C 66.78125 49.617188 66.25 49.085938 65.59375 49.085938 Z M 113.851562 49.085938 C 114.167969 49.085938 114.46875 49.210938 114.691406 49.433594 C 114.914062 49.652344 115.039062 49.957031 115.039062 50.269531 L 115.039062 66.292969 C 115.039062 66.949219 114.507812 67.480469 113.851562 67.480469 L 80.535156 67.480469 C 79.878906 67.480469 79.351562 66.949219 79.347656 66.296875 C 79.34375 62.472656 79.328125 54.101562 79.320312 50.273438 C 79.320312 49.957031 79.445312 49.65625 79.667969 49.433594 C 79.890625 49.210938 80.191406 49.085938 80.503906 49.085938 C 86.96875 49.085938 107.398438 49.085938 113.851562 49.085938 Z M 45.273438 49.085938 L 45.273438 67.480469 L 33.859375 67.480469 C 33.425781 67.480469 33.027344 67.242188 32.816406 66.863281 C 32.609375 66.480469 32.628906 66.015625 32.863281 65.652344 C 35.859375 61.011719 41.40625 52.421875 43.210938 49.625 C 43.429688 49.289062 43.804688 49.085938 44.207031 49.085938 Z M 138.308594 49.085938 C 143.832031 49.085938 147.792969 50.46875 150.605469 52.492188 C 154.777344 55.5 156.40625 59.898438 156.941406 63.078125 C 157.179688 64.535156 157.054688 65.925781 156.609375 66.8125 C 156.433594 67.175781 156.222656 67.460938 155.910156 67.480469 C 137.429688 67.480469 126.722656 67.480469 122.566406 67.480469 C 122.238281 67.480469 121.921875 67.355469 121.691406 67.128906 C 121.464844 66.90625 121.335938 66.605469 121.335938 66.292969 C 121.335938 62.46875 121.335938 54.085938 121.335938 50.261719 C 121.335938 49.601562 121.890625 49.085938 122.566406 49.085938 Z M 160.53125 42.191406 L 41.324219 42.191406 C 41.164062 42.1875 41.007812 42.121094 40.894531 42.007812 C 40.777344 41.890625 40.710938 41.730469 40.710938 41.566406 C 40.710938 40.570312 41.105469 39.621094 41.808594 38.917969 C 42.507812 38.214844 43.460938 37.820312 44.453125 37.820312 L 157.414062 37.820312 C 158.40625 37.820312 159.355469 38.214844 160.058594 38.917969 C 160.761719 39.621094 161.15625 40.570312 161.15625 41.566406 C 161.15625 41.730469 161.089844 41.890625 160.972656 42.007812 C 160.855469 42.125 160.695312 42.191406 160.53125 42.191406 Z M 61.019531 25.398438 L 141.695312 25.398438 C 141.859375 25.398438 142.019531 25.332031 142.136719 25.214844 C 142.253906 25.097656 142.320312 24.9375 142.320312 24.773438 C 142.320312 23.78125 141.925781 22.828125 141.222656 22.125 C 140.523438 21.425781 139.570312 21.03125 138.578125 21.03125 C 124.039062 21.03125 78.675781 21.03125 64.136719 21.03125 C 63.144531 21.03125 62.191406 21.425781 61.492188 22.125 C 60.789062 22.828125 60.394531 23.78125 60.394531 24.773438 C 60.394531 24.9375 60.460938 25.097656 60.578125 25.214844 C 60.695312 25.332031 60.855469 25.398438 61.019531 25.398438 " fill-opacity="1" fill-rule="evenodd"/><path fill="#d9d9d9" d="M 64.046875 105.496094 L 134.867188 105.496094 C 135.246094 105.496094 135.554688 105.800781 135.554688 106.183594 C 135.554688 106.5625 135.246094 106.867188 134.867188 106.867188 L 64.046875 106.867188 C 63.863281 106.867188 63.6875 106.796875 63.558594 106.667969 C 63.433594 106.539062 63.359375 106.363281 63.359375 106.183594 C 63.359375 106 63.433594 105.824219 63.558594 105.695312 C 63.6875 105.566406 63.863281 105.496094 64.046875 105.496094 Z M 80.882812 76.300781 L 80.882812 77.230469 L 86.660156 77.230469 L 86.660156 76.300781 Z M 59.679688 76.300781 L 59.679688 77.230469 L 65.457031 77.230469 L 65.457031 76.300781 Z M 46.851562 49.085938 L 46.851562 67.488281 L 65.59375 67.480469 C 66.25 67.480469 66.78125 66.949219 66.78125 66.292969 C 66.78125 62.46875 66.78125 54.097656 66.78125 50.269531 C 66.78125 49.617188 66.25 49.085938 65.59375 49.085938 Z M 113.851562 49.085938 C 114.167969 49.085938 114.46875 49.210938 114.691406 49.433594 C 114.914062 49.65625 115.039062 49.957031 115.039062 50.269531 L 115.039062 66.292969 C 115.039062 66.949219 114.507812 67.480469 113.851562 67.480469 L 80.535156 67.480469 C 79.878906 67.480469 79.351562 66.949219 79.347656 66.296875 C 79.339844 62.472656 79.328125 54.101562 79.320312 50.273438 C 79.320312 49.957031 79.445312 49.65625 79.667969 49.433594 C 79.890625 49.210938 80.191406 49.085938 80.503906 49.085938 C 86.964844 49.085938 107.398438 49.085938 113.851562 49.085938 Z M 45.269531 49.085938 L 45.269531 67.480469 L 33.859375 67.480469 C 33.425781 67.480469 33.027344 67.242188 32.816406 66.863281 C 32.609375 66.480469 32.628906 66.015625 32.863281 65.652344 C 35.859375 61.011719 41.40625 52.421875 43.210938 49.625 C 43.429688 49.289062 43.804688 49.085938 44.207031 49.085938 Z M 138.308594 49.085938 C 143.832031 49.085938 147.789062 50.46875 150.601562 52.492188 C 154.777344 55.5 156.40625 59.898438 156.941406 63.078125 C 157.179688 64.535156 157.050781 65.925781 156.609375 66.8125 C 156.429688 67.175781 156.222656 67.460938 155.910156 67.480469 C 137.429688 67.480469 126.722656 67.480469 122.566406 67.480469 C 122.238281 67.480469 121.921875 67.355469 121.6875 67.128906 C 121.464844 66.90625 121.335938 66.605469 121.335938 66.292969 C 121.335938 62.46875 121.335938 54.085938 121.335938 50.261719 C 121.335938 49.601562 121.890625 49.085938 122.566406 49.085938 Z M 162.167969 43.773438 L 39.699219 43.773438 C 39.644531 43.773438 39.589844 43.792969 39.550781 43.832031 C 39.511719 43.871094 39.488281 43.925781 39.488281 43.980469 C 39.488281 44.039062 39.511719 44.089844 39.550781 44.128906 C 39.589844 44.167969 39.644531 44.191406 39.699219 44.191406 L 162.167969 44.191406 C 162.222656 44.191406 162.277344 44.167969 162.316406 44.128906 C 162.355469 44.089844 162.375 44.039062 162.375 43.980469 C 162.375 43.867188 162.28125 43.773438 162.167969 43.773438 Z M 64.898438 36.242188 L 75.132812 36.242188 L 75.132812 26.980469 L 64.898438 26.980469 Z M 129.304688 36.242188 L 136.804688 36.242188 L 136.804688 26.980469 L 129.304688 26.980469 L 129.304688 36.242188 " fill-opacity="1" fill-rule="evenodd"/><path fill="#666666" d="M 91.75 27.066406 L 99.410156 30.015625 L 83.589844 36.109375 L 76.714844 36.109375 L 76.714844 27.066406 Z M 87.988281 36.109375 L 115.234375 36.109375 L 101.613281 30.863281 Z M 119.632812 36.109375 L 103.8125 30.015625 L 111.472656 27.066406 L 127.722656 27.066406 L 127.722656 36.109375 Z M 101.613281 29.167969 L 107.070312 27.066406 L 96.148438 27.066406 L 101.613281 29.167969 " fill-opacity="1" fill-rule="evenodd"/><g clip-path="url(#04bb24c863)"><path fill="#1a1a1a" d="M 47.414062 88.816406 C 40.25 88.816406 34.433594 94.636719 34.433594 101.804688 C 34.433594 108.976562 40.25 114.792969 47.414062 114.792969 C 54.578125 114.792969 60.394531 108.976562 60.394531 101.804688 C 60.394531 94.636719 54.578125 88.816406 47.414062 88.816406 Z M 63.316406 26.980469 L 63.316406 36.242188 L 44.453125 36.242188 C 43.042969 36.242188 41.6875 36.800781 40.691406 37.800781 C 39.691406 38.796875 39.132812 40.152344 39.132812 41.566406 C 39.132812 41.800781 39.167969 42.03125 39.238281 42.25 C 38.9375 42.332031 38.660156 42.488281 38.433594 42.714844 C 38.097656 43.050781 37.910156 43.507812 37.910156 43.980469 C 37.910156 44.253906 37.96875 44.515625 38.085938 44.757812 C 37.671875 44.921875 37.324219 45.144531 37.035156 45.441406 C 36.523438 45.96875 36.257812 46.582031 36.164062 47.128906 C 35.128906 47.777344 33.726562 49.144531 32.152344 50.96875 C 28.183594 55.578125 22.984375 63.140625 19.648438 68.554688 C 19.015625 69.585938 18.59375 71.875 18.378906 74.695312 C 17.929688 80.570312 18.21875 88.851562 18.253906 91.988281 C 16.9375 92.742188 16.058594 94.199219 16.035156 95.71875 C 16.035156 95.71875 16.035156 95.722656 16.035156 95.726562 C 16.027344 97.710938 16.023438 96.980469 16.035156 98.964844 C 16.035156 98.96875 16.035156 98.972656 16.035156 98.972656 C 16.078125 101.273438 18.074219 103.207031 20.304688 103.25 C 20.308594 103.25 20.3125 103.25 20.316406 103.25 C 21.472656 103.253906 26.585938 103.238281 30.355469 103.222656 C 31.796875 103.21875 32.992188 102.105469 33.101562 100.667969 C 33.101562 100.660156 33.105469 100.652344 33.105469 100.648438 C 33.113281 100.496094 33.121094 100.359375 33.132812 100.261719 C 33.902344 93.054688 40.007812 87.433594 47.414062 87.433594 C 54.820312 87.433594 60.925781 93.054688 61.695312 100.261719 C 61.707031 100.363281 61.714844 100.503906 61.722656 100.664062 C 61.722656 100.671875 61.722656 100.679688 61.726562 100.6875 C 61.832031 102.132812 63.035156 103.25 64.484375 103.25 C 75.0625 103.25 125.90625 103.25 134.960938 103.25 C 136.125 103.25 137.160156 102.523438 137.558594 101.429688 C 137.871094 100.578125 138.289062 99.4375 138.660156 98.421875 C 139.003906 97.480469 139.800781 96.796875 140.753906 96.589844 C 140.050781 98.1875 139.660156 99.953125 139.660156 101.804688 C 139.660156 108.976562 145.476562 114.792969 152.640625 114.792969 C 159.804688 114.792969 165.621094 108.976562 165.621094 101.804688 C 165.621094 99.933594 165.222656 98.148438 164.507812 96.539062 C 165.574219 96.65625 166.5 97.359375 166.890625 98.378906 L 168.0625 101.441406 C 168.472656 102.507812 169.5 103.214844 170.644531 103.214844 C 171.289062 103.214844 172.066406 103.214844 172.761719 103.214844 C 174.238281 103.214844 175.457031 102.054688 175.523438 100.578125 C 175.527344 100.574219 175.527344 100.570312 175.527344 100.570312 C 175.785156 93.589844 176.191406 69.035156 170.144531 54.933594 C 168.324219 50.683594 165.910156 47.378906 162.785156 45.664062 C 163.023438 45.574219 163.246094 45.433594 163.433594 45.25 C 163.769531 44.914062 163.957031 44.457031 163.957031 43.980469 C 163.957031 43.152344 163.390625 42.453125 162.625 42.25 C 162.695312 42.03125 162.734375 41.800781 162.734375 41.566406 C 162.734375 40.152344 162.175781 38.796875 161.175781 37.800781 C 160.175781 36.800781 158.824219 36.242188 157.414062 36.242188 L 138.386719 36.242188 L 138.386719 26.980469 L 141.695312 26.980469 C 142.277344 26.980469 142.839844 26.75 143.253906 26.335938 C 143.667969 25.921875 143.898438 25.359375 143.898438 24.773438 C 143.898438 23.363281 143.339844 22.007812 142.339844 21.007812 C 141.34375 20.007812 139.988281 19.449219 138.578125 19.449219 C 124.039062 19.449219 78.675781 19.449219 64.136719 19.449219 C 62.726562 19.449219 61.371094 20.007812 60.375 21.007812 C 59.375 22.007812 58.8125 23.363281 58.8125 24.773438 C 58.8125 25.359375 59.046875 25.921875 59.460938 26.335938 C 59.875 26.75 60.433594 26.980469 61.019531 26.980469 Z M 47.414062 90.398438 C 53.707031 90.398438 58.8125 95.511719 58.8125 101.804688 C 58.8125 108.101562 53.707031 113.214844 47.414062 113.214844 C 41.121094 113.214844 36.015625 108.101562 36.015625 101.804688 C 36.015625 95.511719 41.121094 90.398438 47.414062 90.398438 Z M 142.539062 96.519531 C 141.710938 98.101562 141.242188 99.898438 141.242188 101.804688 C 141.242188 108.101562 146.347656 113.214844 152.640625 113.214844 C 158.933594 113.214844 164.042969 108.101562 164.042969 101.804688 C 164.042969 99.898438 163.574219 98.101562 162.746094 96.519531 L 158.980469 96.519531 C 160.175781 97.953125 160.894531 99.796875 160.894531 101.804688 C 160.894531 106.363281 157.195312 110.0625 152.640625 110.0625 C 148.085938 110.0625 144.390625 106.363281 144.390625 101.804688 C 144.390625 99.796875 145.109375 97.953125 146.304688 96.519531 Z M 47.375 93.550781 C 42.820312 93.550781 39.121094 97.25 39.121094 101.804688 C 39.121094 106.363281 42.820312 110.0625 47.375 110.0625 C 51.929688 110.0625 55.625 106.363281 55.625 101.804688 C 55.625 97.25 51.929688 93.550781 47.375 93.550781 Z M 47.375 95.128906 C 51.054688 95.128906 54.046875 98.121094 54.046875 101.804688 C 54.046875 105.492188 51.054688 108.480469 47.375 108.480469 C 43.691406 108.480469 40.703125 105.492188 40.703125 101.804688 C 40.703125 98.121094 43.691406 95.128906 47.375 95.128906 Z M 148.566406 96.519531 L 156.714844 96.519531 C 158.292969 97.742188 159.3125 99.65625 159.3125 101.804688 C 159.3125 105.492188 156.324219 108.480469 152.640625 108.480469 C 148.957031 108.480469 145.96875 105.492188 145.96875 101.804688 C 145.96875 99.65625 146.988281 97.742188 148.566406 96.519531 Z M 64.046875 103.914062 C 63.445312 103.914062 62.867188 104.152344 62.441406 104.578125 C 62.019531 105.003906 61.777344 105.578125 61.777344 106.183594 C 61.777344 106.785156 62.019531 107.359375 62.441406 107.785156 C 62.867188 108.210938 63.445312 108.449219 64.046875 108.449219 C 73.5 108.449219 125.414062 108.449219 134.867188 108.449219 C 136.117188 108.449219 137.132812 107.433594 137.132812 106.183594 C 137.132812 104.929688 136.117188 103.914062 134.867188 103.914062 C 125.414062 103.914062 73.5 103.914062 64.046875 103.914062 Z M 64.046875 105.496094 L 134.867188 105.496094 C 135.246094 105.496094 135.554688 105.800781 135.554688 106.183594 C 135.554688 106.5625 135.246094 106.867188 134.867188 106.867188 L 64.046875 106.867188 C 63.863281 106.867188 63.6875 106.796875 63.5625 106.667969 C 63.433594 106.539062 63.359375 106.363281 63.359375 106.183594 C 63.359375 106 63.433594 105.824219 63.5625 105.695312 C 63.6875 105.566406 63.863281 105.496094 64.046875 105.496094 Z M 172.726562 71.640625 L 32.792969 71.640625 C 28.902344 71.640625 25.105469 72.742188 21.839844 74.792969 C 22.191406 74.902344 22.527344 75.132812 22.828125 75.492188 C 23.515625 76.320312 24.03125 77.972656 24.03125 79.890625 C 24.03125 81.808594 23.515625 83.460938 22.828125 84.285156 C 22.394531 84.808594 21.875 85.0625 21.351562 85.0625 C 20.828125 85.0625 20.3125 84.808594 19.875 84.285156 C 19.820312 84.21875 19.765625 84.148438 19.714844 84.070312 C 19.730469 87.757812 19.835938 91.039062 19.835938 92.480469 C 19.835938 92.804688 19.640625 93.09375 19.34375 93.214844 C 18.335938 93.621094 17.636719 94.65625 17.617188 95.738281 C 17.605469 97.707031 17.605469 96.984375 17.617188 98.953125 C 17.644531 100.414062 18.914062 101.636719 20.332031 101.667969 C 21.496094 101.675781 26.589844 101.65625 30.351562 101.640625 C 30.964844 101.636719 31.476562 101.167969 31.527344 100.554688 C 31.535156 100.371094 31.546875 100.210938 31.558594 100.09375 C 32.414062 92.09375 39.191406 85.851562 47.414062 85.851562 C 55.636719 85.851562 62.414062 92.09375 63.269531 100.09375 C 63.28125 100.21875 63.292969 100.386719 63.300781 100.582031 C 63.355469 101.195312 63.867188 101.667969 64.484375 101.667969 C 75.0625 101.667969 125.90625 101.667969 134.960938 101.667969 C 135.460938 101.667969 135.90625 101.355469 136.074219 100.886719 L 137.175781 97.878906 C 137.820312 96.113281 139.496094 94.941406 141.375 94.941406 L 164.191406 94.941406 C 166.042969 94.941406 167.703125 96.082031 168.363281 97.8125 C 168.761719 98.84375 169.207031 100.011719 169.539062 100.875 C 169.714844 101.332031 170.15625 101.632812 170.644531 101.632812 C 171.289062 101.632812 172.0625 101.632812 172.761719 101.632812 C 173.394531 101.632812 173.914062 101.136719 173.945312 100.507812 C 174.117188 95.890625 174.375 83.496094 172.726562 71.640625 Z M 72.925781 73.785156 L 72.839844 99.550781 C 72.839844 99.988281 73.191406 100.34375 73.628906 100.34375 C 74.0625 100.34375 74.417969 99.992188 74.421875 99.554688 L 74.507812 73.789062 C 74.507812 73.351562 74.15625 72.996094 73.71875 72.996094 C 73.28125 72.996094 72.925781 73.347656 72.925781 73.785156 Z M 21.351562 76.300781 C 21.414062 76.300781 21.464844 76.351562 21.519531 76.40625 C 21.617188 76.496094 21.703125 76.617188 21.785156 76.757812 C 22.199219 77.464844 22.449219 78.605469 22.449219 79.890625 C 22.449219 81.175781 22.199219 82.316406 21.785156 83.023438 C 21.703125 83.164062 21.617188 83.285156 21.519531 83.375 C 21.464844 83.425781 21.414062 83.480469 21.351562 83.480469 C 21.289062 83.480469 21.242188 83.425781 21.183594 83.375 C 21.089844 83.285156 21 83.164062 20.917969 83.023438 C 20.503906 82.316406 20.253906 81.175781 20.253906 79.890625 C 20.253906 78.605469 20.503906 77.464844 20.917969 76.757812 C 21 76.617188 21.089844 76.496094 21.183594 76.40625 C 21.242188 76.351562 21.289062 76.300781 21.351562 76.300781 Z M 80.71875 78.8125 L 86.824219 78.8125 C 87.605469 78.8125 88.242188 78.175781 88.242188 77.394531 L 88.242188 76.136719 C 88.242188 75.355469 87.605469 74.71875 86.824219 74.71875 L 80.71875 74.71875 C 79.9375 74.71875 79.304688 75.355469 79.304688 76.136719 L 79.304688 77.394531 C 79.304688 78.175781 79.9375 78.8125 80.71875 78.8125 Z M 59.515625 78.8125 L 65.621094 78.8125 C 66.402344 78.8125 67.039062 78.175781 67.039062 77.394531 L 67.039062 76.136719 C 67.039062 75.355469 66.402344 74.71875 65.621094 74.71875 L 59.515625 74.71875 C 58.734375 74.71875 58.101562 75.355469 58.101562 76.136719 L 58.101562 77.394531 C 58.101562 78.175781 58.734375 78.8125 59.515625 78.8125 Z M 80.882812 76.300781 L 80.882812 77.230469 L 86.660156 77.230469 L 86.660156 76.300781 Z M 59.679688 76.300781 L 59.679688 77.230469 L 65.457031 77.230469 L 65.457031 76.300781 Z M 172.496094 70.058594 C 171.683594 64.796875 170.472656 59.714844 168.691406 55.554688 C 166.261719 49.890625 162.789062 45.941406 157.640625 45.941406 C 132.320312 45.941406 42.070312 45.941406 42.070312 45.941406 C 41.035156 45.941406 40.160156 45.9375 39.445312 46.039062 C 38.902344 46.113281 38.46875 46.238281 38.167969 46.542969 C 38.046875 46.667969 37.949219 46.804688 37.878906 46.941406 C 38.617188 47.140625 39.46875 47.664062 39.402344 49.039062 C 39.367188 49.792969 38.984375 50.921875 37.859375 52.554688 C 33.417969 59 28.929688 66.113281 28.398438 66.859375 C 26.898438 68.960938 25.4375 69.097656 21.503906 69.0625 C 21.394531 69.085938 21.132812 69.160156 20.992188 69.386719 C 20.488281 70.207031 20.203125 71.945312 20.011719 74.109375 C 23.746094 71.480469 28.207031 70.058594 32.792969 70.058594 Z M 113.851562 47.503906 L 80.503906 47.503906 C 79.769531 47.503906 79.066406 47.796875 78.546875 48.316406 C 78.027344 48.835938 77.738281 49.539062 77.738281 50.277344 C 77.746094 54.105469 77.761719 62.476562 77.769531 66.300781 C 77.769531 67.824219 79.007812 69.0625 80.535156 69.0625 C 86.984375 69.0625 107.398438 69.0625 113.851562 69.0625 C 115.378906 69.0625 116.617188 67.824219 116.617188 66.292969 C 116.617188 62.46875 116.617188 54.097656 116.617188 50.269531 C 116.617188 49.535156 116.328125 48.832031 115.808594 48.3125 C 115.289062 47.792969 114.585938 47.503906 113.851562 47.503906 Z M 65.59375 47.503906 L 44.207031 47.503906 C 43.265625 47.503906 42.390625 47.980469 41.882812 48.769531 C 40.078125 51.5625 34.53125 60.152344 31.535156 64.792969 C 30.984375 65.644531 30.945312 66.726562 31.429688 67.617188 C 31.914062 68.507812 32.847656 69.0625 33.859375 69.0625 C 41.621094 69.0625 59.609375 69.0625 65.59375 69.0625 C 67.121094 69.0625 68.359375 67.824219 68.359375 66.292969 C 68.359375 62.46875 68.359375 54.097656 68.359375 50.269531 C 68.359375 48.742188 67.121094 47.503906 65.59375 47.503906 Z M 138.308594 47.503906 C 134.082031 47.503906 129.109375 47.503906 122.566406 47.503906 C 121.007812 47.503906 119.753906 48.738281 119.753906 50.261719 C 119.753906 54.085938 119.753906 62.46875 119.753906 66.292969 C 119.753906 67.03125 120.050781 67.738281 120.585938 68.257812 C 121.109375 68.773438 121.820312 69.0625 122.566406 69.0625 C 126.722656 69.0625 137.4375 69.0625 155.925781 69.0625 C 155.9375 69.0625 155.945312 69.0625 155.957031 69.0625 C 156.804688 69.03125 157.542969 68.488281 158.027344 67.515625 C 158.582031 66.402344 158.800781 64.65625 158.5 62.820312 C 158.5 62.820312 158.5 62.816406 158.5 62.816406 C 157.914062 59.328125 156.109375 54.511719 151.527344 51.210938 C 148.5 49.03125 144.253906 47.503906 138.308594 47.503906 Z M 73.023438 48.324219 L 73.023438 68.148438 C 73.023438 68.582031 73.375 68.9375 73.8125 68.9375 C 74.25 68.9375 74.601562 68.582031 74.601562 68.148438 L 74.601562 48.324219 C 74.601562 47.886719 74.25 47.535156 73.8125 47.535156 C 73.375 47.535156 73.023438 47.886719 73.023438 48.324219 Z M 168.019531 58.21875 C 168.007812 58.140625 167.988281 58.066406 167.953125 57.996094 C 167.796875 57.484375 167.617188 56.964844 167.417969 56.449219 C 166.183594 53.292969 164.109375 50.253906 160.441406 48.527344 C 159.457031 48.066406 157.351562 47.675781 155.367188 47.40625 C 154.519531 47.289062 153.699219 47.730469 153.328125 48.5 C 152.960938 49.273438 153.128906 50.191406 153.75 50.78125 C 156.378906 53.261719 159.777344 57.796875 160.285156 64.898438 C 160.316406 65.339844 160.335938 65.746094 160.339844 66.109375 C 160.367188 67.628906 161.613281 68.84375 163.136719 68.828125 C 164.261719 68.816406 165.648438 68.800781 166.738281 68.789062 C 167.488281 68.78125 168.203125 68.464844 168.71875 67.917969 C 169.234375 67.371094 169.503906 66.636719 169.46875 65.886719 C 169.46875 65.886719 169.46875 65.882812 169.46875 65.882812 C 169.449219 65.523438 169.40625 65.128906 169.339844 64.710938 C 169.066406 63.039062 168.753906 60.667969 168.019531 58.21875 Z M 37.113281 48.398438 C 36.175781 48.917969 34.867188 50.242188 33.351562 52.003906 C 29.875 56.042969 25.441406 62.375 22.183594 67.488281 C 24.851562 67.519531 25.996094 67.503906 27.109375 65.941406 C 27.644531 65.195312 32.121094 58.09375 36.558594 51.65625 C 37.164062 50.773438 37.527344 50.082031 37.703125 49.535156 C 37.828125 49.160156 37.863281 48.890625 37.796875 48.691406 C 37.734375 48.515625 37.558594 48.472656 37.421875 48.4375 C 37.304688 48.410156 37.191406 48.402344 37.113281 48.398438 Z M 113.851562 49.085938 C 114.167969 49.085938 114.46875 49.210938 114.691406 49.433594 C 114.914062 49.652344 115.039062 49.957031 115.039062 50.269531 L 115.039062 66.292969 C 115.039062 66.949219 114.507812 67.480469 113.851562 67.480469 L 80.535156 67.480469 C 79.878906 67.480469 79.351562 66.949219 79.347656 66.296875 C 79.339844 62.472656 79.328125 54.101562 79.320312 50.273438 C 79.320312 49.957031 79.445312 49.65625 79.667969 49.433594 C 79.890625 49.210938 80.191406 49.085938 80.503906 49.085938 C 86.964844 49.085938 107.398438 49.085938 113.851562 49.085938 Z M 45.269531 49.085938 L 45.269531 67.480469 L 33.859375 67.480469 C 33.425781 67.480469 33.027344 67.242188 32.816406 66.863281 C 32.609375 66.480469 32.628906 66.015625 32.863281 65.652344 C 35.859375 61.011719 41.40625 52.421875 43.210938 49.625 C 43.429688 49.289062 43.804688 49.085938 44.207031 49.085938 Z M 138.308594 49.085938 C 143.832031 49.085938 147.789062 50.46875 150.601562 52.492188 C 154.777344 55.5 156.40625 59.898438 156.941406 63.078125 C 157.179688 64.535156 157.050781 65.925781 156.609375 66.8125 C 156.429688 67.175781 156.222656 67.460938 155.910156 67.480469 C 137.429688 67.480469 126.722656 67.480469 122.566406 67.480469 C 122.238281 67.480469 121.921875 67.355469 121.6875 67.128906 C 121.464844 66.90625 121.335938 66.605469 121.335938 66.292969 C 121.335938 62.46875 121.335938 54.085938 121.335938 50.261719 C 121.335938 49.601562 121.890625 49.085938 122.566406 49.085938 Z M 46.851562 49.085938 L 46.851562 67.488281 L 65.59375 67.480469 C 66.25 67.480469 66.78125 66.949219 66.78125 66.292969 C 66.78125 62.46875 66.78125 54.097656 66.78125 50.269531 C 66.78125 49.617188 66.25 49.085938 65.59375 49.085938 Z M 161.804688 64.121094 L 167.644531 64.121094 C 167.691406 64.421875 167.738281 64.703125 167.78125 64.96875 C 167.839844 65.324219 167.871094 65.660156 167.890625 65.964844 C 167.90625 66.289062 167.789062 66.601562 167.570312 66.835938 C 167.347656 67.070312 167.042969 67.203125 166.71875 67.207031 C 165.628906 67.222656 164.246094 67.234375 163.121094 67.246094 C 162.46875 67.253906 161.933594 66.734375 161.921875 66.082031 C 161.921875 66.082031 161.921875 66.078125 161.921875 66.078125 C 161.914062 65.691406 161.894531 65.257812 161.863281 64.785156 C 161.847656 64.5625 161.828125 64.339844 161.804688 64.121094 Z M 166.640625 59.125 C 166.972656 60.316406 167.207031 61.480469 167.390625 62.539062 L 161.601562 62.539062 C 161.40625 61.324219 161.128906 60.183594 160.792969 59.125 Z M 164.480469 54.128906 C 165.078125 55.050781 165.558594 56.035156 165.945312 57.027344 C 166.011719 57.199219 166.078125 57.371094 166.136719 57.542969 L 160.226562 57.542969 C 159.71875 56.28125 159.128906 55.148438 158.503906 54.128906 Z M 163.265625 52.546875 C 162.332031 51.519531 161.1875 50.628906 159.765625 49.960938 C 158.875 49.539062 156.953125 49.21875 155.152344 48.972656 C 154.984375 48.949219 154.824219 49.035156 154.753906 49.1875 C 154.683594 49.335938 154.714844 49.515625 154.835938 49.628906 C 155.683594 50.429688 156.601562 51.425781 157.492188 52.632812 C 157.597656 52.578125 157.71875 52.546875 157.847656 52.546875 Z M 162.167969 43.773438 L 39.699219 43.773438 C 39.644531 43.773438 39.589844 43.792969 39.550781 43.832031 C 39.511719 43.871094 39.488281 43.925781 39.488281 43.980469 C 39.488281 44.039062 39.511719 44.089844 39.550781 44.128906 C 39.589844 44.167969 39.644531 44.191406 39.699219 44.191406 L 162.167969 44.191406 C 162.222656 44.191406 162.277344 44.167969 162.316406 44.128906 C 162.355469 44.089844 162.375 44.039062 162.375 43.980469 C 162.375 43.867188 162.28125 43.773438 162.167969 43.773438 Z M 160.53125 42.191406 L 41.324219 42.191406 C 41.164062 42.1875 41.007812 42.121094 40.894531 42.007812 C 40.777344 41.890625 40.710938 41.730469 40.710938 41.566406 C 40.710938 40.570312 41.105469 39.621094 41.808594 38.917969 C 42.507812 38.214844 43.460938 37.820312 44.453125 37.820312 L 157.414062 37.820312 C 158.40625 37.820312 159.355469 38.214844 160.058594 38.917969 C 160.761719 39.621094 161.152344 40.570312 161.152344 41.566406 C 161.152344 41.730469 161.089844 41.890625 160.972656 42.007812 C 160.855469 42.125 160.695312 42.191406 160.53125 42.191406 Z M 64.898438 36.242188 L 75.132812 36.242188 L 75.132812 26.980469 L 64.898438 26.980469 Z M 129.304688 36.242188 L 136.804688 36.242188 L 136.804688 26.980469 L 129.304688 26.980469 Z M 91.75 27.0625 L 99.410156 30.015625 L 83.589844 36.109375 L 76.714844 36.109375 L 76.714844 27.0625 Z M 87.988281 36.109375 L 115.234375 36.109375 L 101.613281 30.863281 Z M 119.632812 36.109375 L 103.8125 30.015625 L 111.472656 27.0625 L 127.722656 27.0625 L 127.722656 36.109375 Z M 101.613281 29.167969 L 107.074219 27.0625 L 96.148438 27.0625 Z M 111.558594 25.398438 L 141.695312 25.398438 C 141.859375 25.398438 142.019531 25.332031 142.136719 25.214844 C 142.253906 25.097656 142.320312 24.941406 142.320312 24.773438 C 142.320312 23.78125 141.925781 22.828125 141.222656 22.125 C 140.523438 21.425781 139.570312 21.03125 138.578125 21.03125 C 124.039062 21.03125 78.675781 21.03125 64.136719 21.03125 C 63.144531 21.03125 62.191406 21.425781 61.492188 22.125 C 60.789062 22.828125 60.394531 23.78125 60.394531 24.773438 C 60.394531 24.941406 60.460938 25.097656 60.578125 25.214844 C 60.695312 25.332031 60.855469 25.398438 61.019531 25.398438 L 91.664062 25.398438 C 91.675781 25.398438 91.683594 25.398438 91.695312 25.398438 L 111.527344 25.398438 C 111.539062 25.398438 111.546875 25.398438 111.558594 25.398438 " fill-opacity="1" fill-rule="evenodd"/></g><g fill="#000000" fill-opacity="1"><g transform="translate(188.340995, 82.293589)"><g><path d="M 16.28125 -32.25 L 19.296875 -32.25 L 23.875 -20.71875 L 28.5 -32.25 L 31.5625 -32.25 L 25.890625 -18.390625 L 32.109375 -3.703125 L 43.859375 -32.46875 L 47.328125 -32.46875 L 33.5625 0 L 30.734375 0 L 23.921875 -16.046875 L 17.0625 0 L 14.265625 0 L 0.546875 -32.46875 L 3.984375 -32.46875 L 15.78125 -3.703125 L 21.953125 -18.390625 Z M 16.28125 -32.25 "/></g></g></g><g fill="#000000" fill-opacity="1"><g transform="translate(236.185751, 82.293589)"><g><path d="M 23.46875 0 L 20.359375 0 L 20.359375 -13.3125 C 20.359375 -16.019531 19.890625 -18.046875 18.953125 -19.390625 C 18.023438 -20.734375 16.660156 -21.40625 14.859375 -21.40625 C 13.972656 -21.40625 13.097656 -21.226562 12.234375 -20.875 C 11.367188 -20.53125 10.550781 -20.050781 9.78125 -19.4375 C 9.019531 -18.820312 8.359375 -18.101562 7.796875 -17.28125 C 7.234375 -16.457031 6.816406 -15.5625 6.546875 -14.59375 L 6.546875 0 L 3.4375 0 L 3.4375 -33.390625 L 6.546875 -33.390625 L 6.546875 -18.4375 C 7.484375 -20.226562 8.789062 -21.640625 10.46875 -22.671875 C 12.144531 -23.710938 13.960938 -24.234375 15.921875 -24.234375 C 17.285156 -24.234375 18.441406 -23.984375 19.390625 -23.484375 C 20.335938 -22.984375 21.113281 -22.28125 21.71875 -21.375 C 22.332031 -20.476562 22.773438 -19.394531 23.046875 -18.125 C 23.328125 -16.863281 23.46875 -15.472656 23.46875 -13.953125 Z M 23.46875 0 "/></g></g></g><g fill="#000000" fill-opacity="1"><g transform="translate(262.852578, 82.293589)"><g><path d="M 13.71875 0.453125 C 11.976562 0.453125 10.382812 0.125 8.9375 -0.53125 C 7.488281 -1.1875 6.226562 -2.082031 5.15625 -3.21875 C 4.09375 -4.363281 3.265625 -5.679688 2.671875 -7.171875 C 2.078125 -8.671875 1.78125 -10.273438 1.78125 -11.984375 C 1.78125 -13.660156 2.078125 -15.238281 2.671875 -16.71875 C 3.265625 -18.195312 4.085938 -19.488281 5.140625 -20.59375 C 6.191406 -21.707031 7.445312 -22.59375 8.90625 -23.25 C 10.375 -23.90625 11.960938 -24.234375 13.671875 -24.234375 C 15.410156 -24.234375 17.003906 -23.90625 18.453125 -23.25 C 19.898438 -22.59375 21.140625 -21.703125 22.171875 -20.578125 C 23.210938 -19.453125 24.019531 -18.15625 24.59375 -16.6875 C 25.175781 -15.226562 25.46875 -13.675781 25.46875 -12.03125 C 25.46875 -11.78125 25.46875 -11.535156 25.46875 -11.296875 C 25.46875 -11.054688 25.453125 -10.890625 25.421875 -10.796875 L 5.03125 -10.796875 C 5.125 -9.515625 5.421875 -8.332031 5.921875 -7.25 C 6.421875 -6.164062 7.066406 -5.226562 7.859375 -4.4375 C 8.660156 -3.644531 9.570312 -3.023438 10.59375 -2.578125 C 11.613281 -2.140625 12.703125 -1.921875 13.859375 -1.921875 C 14.617188 -1.921875 15.378906 -2.023438 16.140625 -2.234375 C 16.898438 -2.453125 17.597656 -2.742188 18.234375 -3.109375 C 18.878906 -3.472656 19.460938 -3.921875 19.984375 -4.453125 C 20.503906 -4.992188 20.898438 -5.582031 21.171875 -6.21875 L 23.875 -5.484375 C 23.507812 -4.597656 22.988281 -3.796875 22.3125 -3.078125 C 21.644531 -2.367188 20.867188 -1.742188 19.984375 -1.203125 C 19.097656 -0.671875 18.117188 -0.265625 17.046875 0.015625 C 15.984375 0.304688 14.875 0.453125 13.71875 0.453125 Z M 22.5 -13.171875 C 22.40625 -14.453125 22.109375 -15.617188 21.609375 -16.671875 C 21.109375 -17.722656 20.46875 -18.628906 19.6875 -19.390625 C 18.90625 -20.148438 18.003906 -20.742188 16.984375 -21.171875 C 15.960938 -21.597656 14.875 -21.8125 13.71875 -21.8125 C 12.5625 -21.8125 11.460938 -21.597656 10.421875 -21.171875 C 9.390625 -20.742188 8.484375 -20.148438 7.703125 -19.390625 C 6.929688 -18.628906 6.304688 -17.710938 5.828125 -16.640625 C 5.359375 -15.578125 5.078125 -14.421875 4.984375 -13.171875 Z M 22.5 -13.171875 "/></g></g></g><g fill="#000000" fill-opacity="1"><g transform="translate(289.702368, 82.293589)"><g><path d="M 13.71875 0.453125 C 11.976562 0.453125 10.382812 0.125 8.9375 -0.53125 C 7.488281 -1.1875 6.226562 -2.082031 5.15625 -3.21875 C 4.09375 -4.363281 3.265625 -5.679688 2.671875 -7.171875 C 2.078125 -8.671875 1.78125 -10.273438 1.78125 -11.984375 C 1.78125 -13.660156 2.078125 -15.238281 2.671875 -16.71875 C 3.265625 -18.195312 4.085938 -19.488281 5.140625 -20.59375 C 6.191406 -21.707031 7.445312 -22.59375 8.90625 -23.25 C 10.375 -23.90625 11.960938 -24.234375 13.671875 -24.234375 C 15.410156 -24.234375 17.003906 -23.90625 18.453125 -23.25 C 19.898438 -22.59375 21.140625 -21.703125 22.171875 -20.578125 C 23.210938 -19.453125 24.019531 -18.15625 24.59375 -16.6875 C 25.175781 -15.226562 25.46875 -13.675781 25.46875 -12.03125 C 25.46875 -11.78125 25.46875 -11.535156 25.46875 -11.296875 C 25.46875 -11.054688 25.453125 -10.890625 25.421875 -10.796875 L 5.03125 -10.796875 C 5.125 -9.515625 5.421875 -8.332031 5.921875 -7.25 C 6.421875 -6.164062 7.066406 -5.226562 7.859375 -4.4375 C 8.660156 -3.644531 9.570312 -3.023438 10.59375 -2.578125 C 11.613281 -2.140625 12.703125 -1.921875 13.859375 -1.921875 C 14.617188 -1.921875 15.378906 -2.023438 16.140625 -2.234375 C 16.898438 -2.453125 17.597656 -2.742188 18.234375 -3.109375 C 18.878906 -3.472656 19.460938 -3.921875 19.984375 -4.453125 C 20.503906 -4.992188 20.898438 -5.582031 21.171875 -6.21875 L 23.875 -5.484375 C 23.507812 -4.597656 22.988281 -3.796875 22.3125 -3.078125 C 21.644531 -2.367188 20.867188 -1.742188 19.984375 -1.203125 C 19.097656 -0.671875 18.117188 -0.265625 17.046875 0.015625 C 15.984375 0.304688 14.875 0.453125 13.71875 0.453125 Z M 22.5 -13.171875 C 22.40625 -14.453125 22.109375 -15.617188 21.609375 -16.671875 C 21.109375 -17.722656 20.46875 -18.628906 19.6875 -19.390625 C 18.90625 -20.148438 18.003906 -20.742188 16.984375 -21.171875 C 15.960938 -21.597656 14.875 -21.8125 13.71875 -21.8125 C 12.5625 -21.8125 11.460938 -21.597656 10.421875 -21.171875 C 9.390625 -20.742188 8.484375 -20.148438 7.703125 -19.390625 C 6.929688 -18.628906 6.304688 -17.710938 5.828125 -16.640625 C 5.359375 -15.578125 5.078125 -14.421875 4.984375 -13.171875 Z M 22.5 -13.171875 "/></g></g></g><g fill="#000000" fill-opacity="1"><g transform="translate(316.552157, 82.293589)"><g><path d="M 3.5625 -33.390625 L 6.671875 -33.390625 L 6.671875 -5.390625 C 6.671875 -4.515625 6.914062 -3.820312 7.40625 -3.3125 C 7.894531 -2.8125 8.582031 -2.5625 9.46875 -2.5625 C 9.800781 -2.5625 10.195312 -2.601562 10.65625 -2.6875 C 11.113281 -2.78125 11.539062 -2.90625 11.9375 -3.0625 L 12.484375 -0.546875 C 11.898438 -0.304688 11.1875 -0.109375 10.34375 0.046875 C 9.507812 0.203125 8.789062 0.28125 8.1875 0.28125 C 6.75 0.28125 5.617188 -0.125 4.796875 -0.9375 C 3.972656 -1.75 3.5625 -2.882812 3.5625 -4.34375 Z M 3.5625 -33.390625 "/></g></g></g><g fill="#000000" fill-opacity="1"><g transform="translate(328.99362, 82.293589)"><g><path d="M 3.4375 0 L 3.4375 -23.828125 L 6.546875 -23.828125 L 6.546875 0 Z M 3.4375 -28.8125 L 3.4375 -33.390625 L 6.546875 -33.390625 L 6.546875 -28.8125 Z M 3.4375 -28.8125 "/></g></g></g><g fill="#000000" fill-opacity="1"><g transform="translate(338.965083, 82.293589)"><g><path d="M 13.71875 0.453125 C 11.976562 0.453125 10.382812 0.125 8.9375 -0.53125 C 7.488281 -1.1875 6.226562 -2.082031 5.15625 -3.21875 C 4.09375 -4.363281 3.265625 -5.679688 2.671875 -7.171875 C 2.078125 -8.671875 1.78125 -10.273438 1.78125 -11.984375 C 1.78125 -13.660156 2.078125 -15.238281 2.671875 -16.71875 C 3.265625 -18.195312 4.085938 -19.488281 5.140625 -20.59375 C 6.191406 -21.707031 7.445312 -22.59375 8.90625 -23.25 C 10.375 -23.90625 11.960938 -24.234375 13.671875 -24.234375 C 15.410156 -24.234375 17.003906 -23.90625 18.453125 -23.25 C 19.898438 -22.59375 21.140625 -21.703125 22.171875 -20.578125 C 23.210938 -19.453125 24.019531 -18.15625 24.59375 -16.6875 C 25.175781 -15.226562 25.46875 -13.675781 25.46875 -12.03125 C 25.46875 -11.78125 25.46875 -11.535156 25.46875 -11.296875 C 25.46875 -11.054688 25.453125 -10.890625 25.421875 -10.796875 L 5.03125 -10.796875 C 5.125 -9.515625 5.421875 -8.332031 5.921875 -7.25 C 6.421875 -6.164062 7.066406 -5.226562 7.859375 -4.4375 C 8.660156 -3.644531 9.570312 -3.023438 10.59375 -2.578125 C 11.613281 -2.140625 12.703125 -1.921875 13.859375 -1.921875 C 14.617188 -1.921875 15.378906 -2.023438 16.140625 -2.234375 C 16.898438 -2.453125 17.597656 -2.742188 18.234375 -3.109375 C 18.878906 -3.472656 19.460938 -3.921875 19.984375 -4.453125 C 20.503906 -4.992188 20.898438 -5.582031 21.171875 -6.21875 L 23.875 -5.484375 C 23.507812 -4.597656 22.988281 -3.796875 22.3125 -3.078125 C 21.644531 -2.367188 20.867188 -1.742188 19.984375 -1.203125 C 19.097656 -0.671875 18.117188 -0.265625 17.046875 0.015625 C 15.984375 0.304688 14.875 0.453125 13.71875 0.453125 Z M 22.5 -13.171875 C 22.40625 -14.453125 22.109375 -15.617188 21.609375 -16.671875 C 21.109375 -17.722656 20.46875 -18.628906 19.6875 -19.390625 C 18.90625 -20.148438 18.003906 -20.742188 16.984375 -21.171875 C 15.960938 -21.597656 14.875 -21.8125 13.71875 -21.8125 C 12.5625 -21.8125 11.460938 -21.597656 10.421875 -21.171875 C 9.390625 -20.742188 8.484375 -20.148438 7.703125 -19.390625 C 6.929688 -18.628906 6.304688 -17.710938 5.828125 -16.640625 C 5.359375 -15.578125 5.078125 -14.421875 4.984375 -13.171875 Z M 22.5 -13.171875 "/></g></g></g><g fill="#000000" fill-opacity="1"><g transform="translate(365.814873, 82.293589)"><g/></g></g><g fill="#000000" fill-opacity="1"><g transform="translate(377.47874, 82.293589)"><g><path d="M 16.28125 -32.25 L 19.296875 -32.25 L 23.875 -20.71875 L 28.5 -32.25 L 31.5625 -32.25 L 25.890625 -18.390625 L 32.109375 -3.703125 L 43.859375 -32.46875 L 47.328125 -32.46875 L 33.5625 0 L 30.734375 0 L 23.921875 -16.046875 L 17.0625 0 L 14.265625 0 L 0.546875 -32.46875 L 3.984375 -32.46875 L 15.78125 -3.703125 L 21.953125 -18.390625 Z M 16.28125 -32.25 "/></g></g></g><g fill="#000000" fill-opacity="1"><g transform="translate(425.323495, 82.293589)"><g><path d="M 3.4375 0 L 3.4375 -23.828125 L 6.546875 -23.828125 L 6.546875 0 Z M 3.4375 -28.8125 L 3.4375 -33.390625 L 6.546875 -33.390625 L 6.546875 -28.8125 Z M 3.4375 -28.8125 "/></g></g></g><g fill="#000000" fill-opacity="1"><g transform="translate(435.294959, 82.293589)"><g><path d="M 3.5625 -33.390625 L 6.671875 -33.390625 L 6.671875 -5.390625 C 6.671875 -4.515625 6.914062 -3.820312 7.40625 -3.3125 C 7.894531 -2.8125 8.582031 -2.5625 9.46875 -2.5625 C 9.800781 -2.5625 10.195312 -2.601562 10.65625 -2.6875 C 11.113281 -2.78125 11.539062 -2.90625 11.9375 -3.0625 L 12.484375 -0.546875 C 11.898438 -0.304688 11.1875 -0.109375 10.34375 0.046875 C 9.507812 0.203125 8.789062 0.28125 8.1875 0.28125 C 6.75 0.28125 5.617188 -0.125 4.796875 -0.9375 C 3.972656 -1.75 3.5625 -2.882812 3.5625 -4.34375 Z M 3.5625 -33.390625 "/></g></g></g><g fill="#000000" fill-opacity="1"><g transform="translate(447.736422, 82.293589)"><g><path d="M 13.21875 0.453125 C 11.570312 0.453125 10.046875 0.113281 8.640625 -0.5625 C 7.242188 -1.25 6.039062 -2.15625 5.03125 -3.28125 C 4.019531 -4.414062 3.234375 -5.722656 2.671875 -7.203125 C 2.109375 -8.679688 1.828125 -10.226562 1.828125 -11.84375 C 1.828125 -13.519531 2.097656 -15.113281 2.640625 -16.625 C 3.191406 -18.132812 3.945312 -19.453125 4.90625 -20.578125 C 5.875 -21.703125 7.019531 -22.59375 8.34375 -23.25 C 9.675781 -23.90625 11.132812 -24.234375 12.71875 -24.234375 C 14.726562 -24.234375 16.507812 -23.707031 18.0625 -22.65625 C 19.613281 -21.601562 20.832031 -20.332031 21.71875 -18.84375 L 21.71875 -33.390625 L 24.828125 -33.390625 L 24.828125 -4.03125 C 24.828125 -3.175781 25.195312 -2.75 25.9375 -2.75 L 25.9375 0 C 25.476562 0.09375 25.109375 0.140625 24.828125 0.140625 C 24.097656 0.140625 23.457031 -0.09375 22.90625 -0.5625 C 22.363281 -1.039062 22.09375 -1.613281 22.09375 -2.28125 L 22.09375 -4.625 C 21.144531 -3.0625 19.863281 -1.820312 18.25 -0.90625 C 16.632812 0 14.957031 0.453125 13.21875 0.453125 Z M 13.90625 -2.28125 C 14.664062 -2.28125 15.476562 -2.429688 16.34375 -2.734375 C 17.21875 -3.046875 18.035156 -3.46875 18.796875 -4 C 19.554688 -4.53125 20.203125 -5.15625 20.734375 -5.875 C 21.273438 -6.59375 21.601562 -7.363281 21.71875 -8.1875 L 21.71875 -15.546875 C 21.414062 -16.367188 20.972656 -17.140625 20.390625 -17.859375 C 19.816406 -18.578125 19.15625 -19.207031 18.40625 -19.75 C 17.65625 -20.300781 16.851562 -20.726562 16 -21.03125 C 15.144531 -21.34375 14.304688 -21.5 13.484375 -21.5 C 12.210938 -21.5 11.054688 -21.222656 10.015625 -20.671875 C 8.972656 -20.117188 8.078125 -19.394531 7.328125 -18.5 C 6.585938 -17.601562 6.019531 -16.570312 5.625 -15.40625 C 5.226562 -14.25 5.03125 -13.0625 5.03125 -11.84375 C 5.03125 -10.5625 5.257812 -9.34375 5.71875 -8.1875 C 6.175781 -7.03125 6.800781 -6.015625 7.59375 -5.140625 C 8.382812 -4.273438 9.320312 -3.582031 10.40625 -3.0625 C 11.488281 -2.539062 12.65625 -2.28125 13.90625 -2.28125 Z M 13.90625 -2.28125 "/></g></g></g><g fill="#000000" fill-opacity="1"><g transform="translate(476.187136, 82.293589)"><g/></g></g><g fill="#000000" fill-opacity="1"><g transform="translate(487.85102, 82.293589)"><g><path d="M 1.921875 -16.46875 C 1.921875 -18.414062 2.265625 -20.359375 2.953125 -22.296875 C 3.640625 -24.234375 4.632812 -25.960938 5.9375 -27.484375 C 7.25 -29.003906 8.863281 -30.242188 10.78125 -31.203125 C 12.707031 -32.171875 14.890625 -32.65625 17.328125 -32.65625 C 20.222656 -32.65625 22.703125 -32 24.765625 -30.6875 C 26.828125 -29.375 28.34375 -27.664062 29.3125 -25.5625 L 26.796875 -24.015625 C 26.273438 -25.078125 25.640625 -25.972656 24.890625 -26.703125 C 24.148438 -27.441406 23.351562 -28.035156 22.5 -28.484375 C 21.644531 -28.941406 20.757812 -29.269531 19.84375 -29.46875 C 18.9375 -29.664062 18.039062 -29.765625 17.15625 -29.765625 C 15.195312 -29.765625 13.46875 -29.367188 11.96875 -28.578125 C 10.476562 -27.785156 9.222656 -26.75 8.203125 -25.46875 C 7.179688 -24.1875 6.410156 -22.742188 5.890625 -21.140625 C 5.378906 -19.546875 5.125 -17.925781 5.125 -16.28125 C 5.125 -14.476562 5.4375 -12.753906 6.0625 -11.109375 C 6.6875 -9.460938 7.539062 -8.003906 8.625 -6.734375 C 9.707031 -5.472656 10.988281 -4.46875 12.46875 -3.71875 C 13.945312 -2.976562 15.550781 -2.609375 17.28125 -2.609375 C 18.195312 -2.609375 19.132812 -2.722656 20.09375 -2.953125 C 21.0625 -3.179688 21.992188 -3.546875 22.890625 -4.046875 C 23.785156 -4.546875 24.613281 -5.171875 25.375 -5.921875 C 26.144531 -6.671875 26.785156 -7.578125 27.296875 -8.640625 L 29.953125 -7.265625 C 29.429688 -6.046875 28.695312 -4.972656 27.75 -4.046875 C 26.8125 -3.117188 25.765625 -2.332031 24.609375 -1.6875 C 23.453125 -1.050781 22.222656 -0.5625 20.921875 -0.21875 C 19.628906 0.113281 18.359375 0.28125 17.109375 0.28125 C 14.878906 0.28125 12.832031 -0.207031 10.96875 -1.1875 C 9.113281 -2.164062 7.515625 -3.4375 6.171875 -5 C 4.828125 -6.570312 3.78125 -8.359375 3.03125 -10.359375 C 2.289062 -12.359375 1.921875 -14.394531 1.921875 -16.46875 Z M 1.921875 -16.46875 "/></g></g></g><g fill="#000000" fill-opacity="1"><g transform="translate(519.229137, 82.293589)"><g><path d="M 9.421875 0.453125 C 8.296875 0.453125 7.25 0.265625 6.28125 -0.109375 C 5.320312 -0.492188 4.484375 -1.019531 3.765625 -1.6875 C 3.054688 -2.363281 2.503906 -3.148438 2.109375 -4.046875 C 1.710938 -4.941406 1.515625 -5.910156 1.515625 -6.953125 C 1.515625 -7.984375 1.753906 -8.941406 2.234375 -9.828125 C 2.722656 -10.710938 3.410156 -11.472656 4.296875 -12.109375 C 5.179688 -12.753906 6.234375 -13.25 7.453125 -13.59375 C 8.671875 -13.945312 10.015625 -14.125 11.484375 -14.125 C 12.703125 -14.125 13.9375 -14.015625 15.1875 -13.796875 C 16.4375 -13.585938 17.546875 -13.285156 18.515625 -12.890625 L 18.515625 -15.046875 C 18.515625 -17.148438 17.921875 -18.816406 16.734375 -20.046875 C 15.546875 -21.285156 13.898438 -21.90625 11.796875 -21.90625 C 10.578125 -21.90625 9.328125 -21.660156 8.046875 -21.171875 C 6.765625 -20.679688 5.46875 -19.984375 4.15625 -19.078125 L 3.0625 -21.125 C 6.144531 -23.195312 9.132812 -24.234375 12.03125 -24.234375 C 15.019531 -24.234375 17.363281 -23.394531 19.0625 -21.71875 C 20.769531 -20.039062 21.625 -17.722656 21.625 -14.765625 L 21.625 -4.03125 C 21.625 -3.175781 22.007812 -2.75 22.78125 -2.75 L 22.78125 0 C 22.257812 0.09375 21.863281 0.140625 21.59375 0.140625 C 20.789062 0.140625 20.171875 -0.0546875 19.734375 -0.453125 C 19.296875 -0.847656 19.0625 -1.398438 19.03125 -2.109375 L 18.9375 -3.984375 C 17.832031 -2.546875 16.445312 -1.445312 14.78125 -0.6875 C 13.125 0.0703125 11.335938 0.453125 9.421875 0.453125 Z M 10.15625 -1.921875 C 11.769531 -1.921875 13.253906 -2.222656 14.609375 -2.828125 C 15.960938 -3.441406 16.992188 -4.253906 17.703125 -5.265625 C 17.972656 -5.535156 18.175781 -5.828125 18.3125 -6.140625 C 18.445312 -6.460938 18.515625 -6.765625 18.515625 -7.046875 L 18.515625 -10.9375 C 17.484375 -11.332031 16.410156 -11.632812 15.296875 -11.84375 C 14.179688 -12.0625 13.046875 -12.171875 11.890625 -12.171875 C 9.691406 -12.171875 7.90625 -11.710938 6.53125 -10.796875 C 5.164062 -9.878906 4.484375 -8.675781 4.484375 -7.1875 C 4.484375 -6.445312 4.625 -5.753906 4.90625 -5.109375 C 5.195312 -4.472656 5.59375 -3.921875 6.09375 -3.453125 C 6.601562 -2.984375 7.207031 -2.609375 7.90625 -2.328125 C 8.613281 -2.054688 9.363281 -1.921875 10.15625 -1.921875 Z M 10.15625 -1.921875 "/></g></g></g><g fill="#000000" fill-opacity="1"><g transform="translate(544.157828, 82.293589)"><g><path d="M 38.875 0 L 35.765625 0 L 35.765625 -13.3125 C 35.765625 -16.082031 35.320312 -18.125 34.4375 -19.4375 C 33.550781 -20.75 32.238281 -21.40625 30.5 -21.40625 C 29.59375 -21.40625 28.734375 -21.234375 27.921875 -20.890625 C 27.109375 -20.554688 26.359375 -20.082031 25.671875 -19.46875 C 24.992188 -18.863281 24.394531 -18.140625 23.875 -17.296875 C 23.351562 -16.460938 22.957031 -15.546875 22.6875 -14.546875 L 22.6875 0 L 19.578125 0 L 19.578125 -13.3125 C 19.578125 -16.144531 19.148438 -18.203125 18.296875 -19.484375 C 17.441406 -20.765625 16.128906 -21.40625 14.359375 -21.40625 C 12.554688 -21.40625 10.953125 -20.78125 9.546875 -19.53125 C 8.148438 -18.28125 7.148438 -16.632812 6.546875 -14.59375 L 6.546875 0 L 3.4375 0 L 3.4375 -23.828125 L 6.265625 -23.828125 L 6.265625 -18.4375 C 7.242188 -20.257812 8.523438 -21.679688 10.109375 -22.703125 C 11.691406 -23.722656 13.441406 -24.234375 15.359375 -24.234375 C 17.378906 -24.234375 18.988281 -23.671875 20.1875 -22.546875 C 21.394531 -21.421875 22.132812 -19.941406 22.40625 -18.109375 C 24.632812 -22.191406 27.703125 -24.234375 31.609375 -24.234375 C 32.941406 -24.234375 34.070312 -23.988281 35 -23.5 C 35.9375 -23.019531 36.6875 -22.328125 37.25 -21.421875 C 37.8125 -20.523438 38.222656 -19.441406 38.484375 -18.171875 C 38.742188 -16.910156 38.875 -15.503906 38.875 -13.953125 Z M 38.875 0 "/></g></g></g><g fill="#000000" fill-opacity="1"><g transform="translate(586.193524, 82.293589)"><g><path d="M 15.59375 0.453125 C 13.582031 0.453125 11.804688 -0.0546875 10.265625 -1.078125 C 8.722656 -2.097656 7.484375 -3.382812 6.546875 -4.9375 L 6.546875 9.734375 L 3.4375 9.734375 L 3.4375 -23.828125 L 6.21875 -23.828125 L 6.21875 -19.203125 C 7.195312 -20.703125 8.460938 -21.914062 10.015625 -22.84375 C 11.566406 -23.769531 13.257812 -24.234375 15.09375 -24.234375 C 16.738281 -24.234375 18.242188 -23.890625 19.609375 -23.203125 C 20.984375 -22.523438 22.175781 -21.613281 23.1875 -20.46875 C 24.195312 -19.320312 24.984375 -18 25.546875 -16.5 C 26.109375 -15.007812 26.390625 -13.472656 26.390625 -11.890625 C 26.390625 -10.210938 26.128906 -8.625 25.609375 -7.125 C 25.085938 -5.632812 24.347656 -4.328125 23.390625 -3.203125 C 22.429688 -2.078125 21.285156 -1.1875 19.953125 -0.53125 C 18.628906 0.125 17.175781 0.453125 15.59375 0.453125 Z M 14.71875 -2.28125 C 16 -2.28125 17.164062 -2.554688 18.21875 -3.109375 C 19.269531 -3.660156 20.171875 -4.382812 20.921875 -5.28125 C 21.671875 -6.175781 22.242188 -7.195312 22.640625 -8.34375 C 23.035156 -9.488281 23.234375 -10.671875 23.234375 -11.890625 C 23.234375 -13.171875 23.003906 -14.390625 22.546875 -15.546875 C 22.085938 -16.703125 21.460938 -17.722656 20.671875 -18.609375 C 19.878906 -19.492188 18.941406 -20.195312 17.859375 -20.71875 C 16.773438 -21.238281 15.609375 -21.5 14.359375 -21.5 C 13.566406 -21.5 12.734375 -21.335938 11.859375 -21.015625 C 10.992188 -20.691406 10.1875 -20.265625 9.4375 -19.734375 C 8.695312 -19.203125 8.054688 -18.578125 7.515625 -17.859375 C 6.984375 -17.140625 6.660156 -16.382812 6.546875 -15.59375 L 6.546875 -8.28125 C 6.910156 -7.425781 7.375 -6.628906 7.9375 -5.890625 C 8.5 -5.160156 9.140625 -4.53125 9.859375 -4 C 10.578125 -3.46875 11.347656 -3.046875 12.171875 -2.734375 C 12.992188 -2.429688 13.84375 -2.28125 14.71875 -2.28125 Z M 14.71875 -2.28125 "/></g></g></g><g fill="#000000" fill-opacity="1"><g transform="translate(614.415526, 82.293589)"><g><path d="M 13.71875 0.453125 C 11.976562 0.453125 10.382812 0.125 8.9375 -0.53125 C 7.488281 -1.1875 6.226562 -2.082031 5.15625 -3.21875 C 4.09375 -4.363281 3.265625 -5.679688 2.671875 -7.171875 C 2.078125 -8.671875 1.78125 -10.273438 1.78125 -11.984375 C 1.78125 -13.660156 2.078125 -15.238281 2.671875 -16.71875 C 3.265625 -18.195312 4.085938 -19.488281 5.140625 -20.59375 C 6.191406 -21.707031 7.445312 -22.59375 8.90625 -23.25 C 10.375 -23.90625 11.960938 -24.234375 13.671875 -24.234375 C 15.410156 -24.234375 17.003906 -23.90625 18.453125 -23.25 C 19.898438 -22.59375 21.140625 -21.703125 22.171875 -20.578125 C 23.210938 -19.453125 24.019531 -18.15625 24.59375 -16.6875 C 25.175781 -15.226562 25.46875 -13.675781 25.46875 -12.03125 C 25.46875 -11.78125 25.46875 -11.535156 25.46875 -11.296875 C 25.46875 -11.054688 25.453125 -10.890625 25.421875 -10.796875 L 5.03125 -10.796875 C 5.125 -9.515625 5.421875 -8.332031 5.921875 -7.25 C 6.421875 -6.164062 7.066406 -5.226562 7.859375 -4.4375 C 8.660156 -3.644531 9.570312 -3.023438 10.59375 -2.578125 C 11.613281 -2.140625 12.703125 -1.921875 13.859375 -1.921875 C 14.617188 -1.921875 15.378906 -2.023438 16.140625 -2.234375 C 16.898438 -2.453125 17.597656 -2.742188 18.234375 -3.109375 C 18.878906 -3.472656 19.460938 -3.921875 19.984375 -4.453125 C 20.503906 -4.992188 20.898438 -5.582031 21.171875 -6.21875 L 23.875 -5.484375 C 23.507812 -4.597656 22.988281 -3.796875 22.3125 -3.078125 C 21.644531 -2.367188 20.867188 -1.742188 19.984375 -1.203125 C 19.097656 -0.671875 18.117188 -0.265625 17.046875 0.015625 C 15.984375 0.304688 14.875 0.453125 13.71875 0.453125 Z M 22.5 -13.171875 C 22.40625 -14.453125 22.109375 -15.617188 21.609375 -16.671875 C 21.109375 -17.722656 20.46875 -18.628906 19.6875 -19.390625 C 18.90625 -20.148438 18.003906 -20.742188 16.984375 -21.171875 C 15.960938 -21.597656 14.875 -21.8125 13.71875 -21.8125 C 12.5625 -21.8125 11.460938 -21.597656 10.421875 -21.171875 C 9.390625 -20.742188 8.484375 -20.148438 7.703125 -19.390625 C 6.929688 -18.628906 6.304688 -17.710938 5.828125 -16.640625 C 5.359375 -15.578125 5.078125 -14.421875 4.984375 -13.171875 Z M 22.5 -13.171875 "/></g></g></g><g fill="#000000" fill-opacity="1"><g transform="translate(641.265333, 82.293589)"><g><path d="M 15.328125 -21.078125 C 13.222656 -21.015625 11.390625 -20.4375 9.828125 -19.34375 C 8.273438 -18.25 7.179688 -16.738281 6.546875 -14.8125 L 6.546875 0 L 3.4375 0 L 3.4375 -23.828125 L 6.359375 -23.828125 L 6.359375 -18.109375 C 7.242188 -19.941406 8.429688 -21.375 9.921875 -22.40625 C 11.421875 -23.445312 13.019531 -23.96875 14.71875 -23.96875 C 14.96875 -23.96875 15.171875 -23.953125 15.328125 -23.921875 Z M 15.328125 -21.078125 "/></g></g></g><g fill="#000000" fill-opacity="1"><g transform="translate(657.320298, 82.293589)"><g><path d="M 10.5625 0 L 0.875 -23.828125 L 4.078125 -23.828125 L 12.25 -2.875 L 20.484375 -23.828125 L 23.5 -23.828125 L 13.8125 0 Z M 10.5625 0 "/></g></g></g><g fill="#000000" fill-opacity="1"><g transform="translate(681.700105, 82.293589)"><g><path d="M 9.421875 0.453125 C 8.296875 0.453125 7.25 0.265625 6.28125 -0.109375 C 5.320312 -0.492188 4.484375 -1.019531 3.765625 -1.6875 C 3.054688 -2.363281 2.503906 -3.148438 2.109375 -4.046875 C 1.710938 -4.941406 1.515625 -5.910156 1.515625 -6.953125 C 1.515625 -7.984375 1.753906 -8.941406 2.234375 -9.828125 C 2.722656 -10.710938 3.410156 -11.472656 4.296875 -12.109375 C 5.179688 -12.753906 6.234375 -13.25 7.453125 -13.59375 C 8.671875 -13.945312 10.015625 -14.125 11.484375 -14.125 C 12.703125 -14.125 13.9375 -14.015625 15.1875 -13.796875 C 16.4375 -13.585938 17.546875 -13.285156 18.515625 -12.890625 L 18.515625 -15.046875 C 18.515625 -17.148438 17.921875 -18.816406 16.734375 -20.046875 C 15.546875 -21.285156 13.898438 -21.90625 11.796875 -21.90625 C 10.578125 -21.90625 9.328125 -21.660156 8.046875 -21.171875 C 6.765625 -20.679688 5.46875 -19.984375 4.15625 -19.078125 L 3.0625 -21.125 C 6.144531 -23.195312 9.132812 -24.234375 12.03125 -24.234375 C 15.019531 -24.234375 17.363281 -23.394531 19.0625 -21.71875 C 20.769531 -20.039062 21.625 -17.722656 21.625 -14.765625 L 21.625 -4.03125 C 21.625 -3.175781 22.007812 -2.75 22.78125 -2.75 L 22.78125 0 C 22.257812 0.09375 21.863281 0.140625 21.59375 0.140625 C 20.789062 0.140625 20.171875 -0.0546875 19.734375 -0.453125 C 19.296875 -0.847656 19.0625 -1.398438 19.03125 -2.109375 L 18.9375 -3.984375 C 17.832031 -2.546875 16.445312 -1.445312 14.78125 -0.6875 C 13.125 0.0703125 11.335938 0.453125 9.421875 0.453125 Z M 10.15625 -1.921875 C 11.769531 -1.921875 13.253906 -2.222656 14.609375 -2.828125 C 15.960938 -3.441406 16.992188 -4.253906 17.703125 -5.265625 C 17.972656 -5.535156 18.175781 -5.828125 18.3125 -6.140625 C 18.445312 -6.460938 18.515625 -6.765625 18.515625 -7.046875 L 18.515625 -10.9375 C 17.484375 -11.332031 16.410156 -11.632812 15.296875 -11.84375 C 14.179688 -12.0625 13.046875 -12.171875 11.890625 -12.171875 C 9.691406 -12.171875 7.90625 -11.710938 6.53125 -10.796875 C 5.164062 -9.878906 4.484375 -8.675781 4.484375 -7.1875 C 4.484375 -6.445312 4.625 -5.753906 4.90625 -5.109375 C 5.195312 -4.472656 5.59375 -3.921875 6.09375 -3.453125 C 6.601562 -2.984375 7.207031 -2.609375 7.90625 -2.328125 C 8.613281 -2.054688 9.363281 -1.921875 10.15625 -1.921875 Z M 10.15625 -1.921875 "/></g></g></g><g fill="#000000" fill-opacity="1"><g transform="translate(706.628763, 82.293589)"><g><path d="M 23.46875 0 L 20.359375 0 L 20.359375 -13.3125 C 20.359375 -16.144531 19.9375 -18.203125 19.09375 -19.484375 C 18.257812 -20.765625 16.972656 -21.40625 15.234375 -21.40625 C 14.316406 -21.40625 13.398438 -21.234375 12.484375 -20.890625 C 11.566406 -20.554688 10.71875 -20.082031 9.9375 -19.46875 C 9.164062 -18.863281 8.472656 -18.140625 7.859375 -17.296875 C 7.253906 -16.460938 6.816406 -15.5625 6.546875 -14.59375 L 6.546875 0 L 3.4375 0 L 3.4375 -23.828125 L 6.265625 -23.828125 L 6.265625 -18.4375 C 7.242188 -20.164062 8.640625 -21.5625 10.453125 -22.625 C 12.265625 -23.695312 14.238281 -24.234375 16.375 -24.234375 C 17.6875 -24.234375 18.796875 -23.988281 19.703125 -23.5 C 20.617188 -23.019531 21.351562 -22.335938 21.90625 -21.453125 C 22.457031 -20.566406 22.851562 -19.484375 23.09375 -18.203125 C 23.34375 -16.921875 23.46875 -15.503906 23.46875 -13.953125 Z M 23.46875 0 "/></g></g></g><g fill="#000000" fill-opacity="1"><g transform="translate(733.295575, 82.293589)"><g><path d="M 11.34375 0.453125 C 9.476562 0.453125 7.660156 0.148438 5.890625 -0.453125 C 4.128906 -1.066406 2.609375 -1.953125 1.328125 -3.109375 L 2.75 -5.21875 C 4.082031 -4.113281 5.441406 -3.285156 6.828125 -2.734375 C 8.222656 -2.191406 9.710938 -1.921875 11.296875 -1.921875 C 13.210938 -1.921875 14.742188 -2.304688 15.890625 -3.078125 C 17.035156 -3.859375 17.609375 -4.96875 17.609375 -6.40625 C 17.609375 -7.070312 17.453125 -7.625 17.140625 -8.0625 C 16.835938 -8.507812 16.390625 -8.898438 15.796875 -9.234375 C 15.203125 -9.566406 14.457031 -9.863281 13.5625 -10.125 C 12.664062 -10.382812 11.617188 -10.65625 10.421875 -10.9375 C 9.054688 -11.269531 7.867188 -11.601562 6.859375 -11.9375 C 5.847656 -12.269531 5.015625 -12.648438 4.359375 -13.078125 C 3.710938 -13.503906 3.226562 -14.03125 2.90625 -14.65625 C 2.582031 -15.28125 2.421875 -16.066406 2.421875 -17.015625 C 2.421875 -18.203125 2.65625 -19.253906 3.125 -20.171875 C 3.601562 -21.085938 4.242188 -21.84375 5.046875 -22.4375 C 5.859375 -23.03125 6.804688 -23.476562 7.890625 -23.78125 C 8.972656 -24.082031 10.125 -24.234375 11.34375 -24.234375 C 13.175781 -24.234375 14.835938 -23.9375 16.328125 -23.34375 C 17.816406 -22.75 19.019531 -21.960938 19.9375 -20.984375 L 18.4375 -19.15625 C 17.550781 -20.070312 16.472656 -20.757812 15.203125 -21.21875 C 13.941406 -21.675781 12.625 -21.90625 11.25 -21.90625 C 10.425781 -21.90625 9.660156 -21.820312 8.953125 -21.65625 C 8.253906 -21.488281 7.640625 -21.222656 7.109375 -20.859375 C 6.578125 -20.492188 6.15625 -20.023438 5.84375 -19.453125 C 5.539062 -18.890625 5.390625 -18.226562 5.390625 -17.46875 C 5.390625 -16.832031 5.492188 -16.316406 5.703125 -15.921875 C 5.921875 -15.523438 6.273438 -15.179688 6.765625 -14.890625 C 7.253906 -14.597656 7.867188 -14.335938 8.609375 -14.109375 C 9.359375 -13.878906 10.269531 -13.644531 11.34375 -13.40625 C 12.863281 -13.03125 14.203125 -12.660156 15.359375 -12.296875 C 16.523438 -11.929688 17.492188 -11.503906 18.265625 -11.015625 C 19.046875 -10.535156 19.632812 -9.941406 20.03125 -9.234375 C 20.425781 -8.535156 20.625 -7.679688 20.625 -6.671875 C 20.625 -4.484375 19.785156 -2.75 18.109375 -1.46875 C 16.429688 -0.1875 14.175781 0.453125 11.34375 0.453125 Z M 11.34375 0.453125 "/></g></g></g></svg>